<svg id="_05_Clap_Hand" data-name="05 Clap Hand" xmlns="http://www.w3.org/2000/svg" width="140" height="140" viewBox="0 0 140 140">
  <path id="Path_525" data-name="Path 525" d="M124.927,43.791a10.083,10.083,0,0,0-14.075-4.2l-2.871,1.67a9.785,9.785,0,0,0-2.126-4.017,10.029,10.029,0,0,0-5.18-3.113l.863-.87a10.5,10.5,0,0,0,.68-14.353,10.068,10.068,0,0,0-14.7-.4l-4.821,4.873a10.141,10.141,0,0,0-9.84-7.852h-.014A9.991,9.991,0,0,0,65.7,18.512L49.166,35.183l-.029.029L47.29,37.074a12.725,12.725,0,0,0-3.931-7.857,7.484,7.484,0,0,0-10.387.292L15.566,47.079a42.078,42.078,0,0,0-2.145,57.761,41.156,41.156,0,0,0,10.312,8.234c.8.858,1.663,1.718,2.6,2.561a40.67,40.67,0,0,0,47.713,4.882l40.091-23.33a10.493,10.493,0,0,0,4.339-13.68,10.128,10.128,0,0,0-4.228-4.374l5.127-2.982a10.492,10.492,0,0,0,4.385-13.68h0a10.07,10.07,0,0,0-4.2-4.353l1.044-.608A10.508,10.508,0,0,0,124.927,43.791ZM16.984,101.566A37.2,37.2,0,0,1,18.963,50.5L36.378,32.947a2.636,2.636,0,0,1,3.678-.185,7.982,7.982,0,0,1,.2,11.4h-.012l-16.367,16.5a2.445,2.445,0,0,0,0,3.438,2.4,2.4,0,0,0,3.41,0L43.626,47.626h0L69.081,21.963a5.224,5.224,0,0,1,3.734-1.56h0a5.3,5.3,0,0,1,4.911,3.3,5.378,5.378,0,0,1-1.158,5.835L49.337,57.009a2.444,2.444,0,0,0,0,3.437,2.4,2.4,0,0,0,3.409,0L80.01,32.959,90.934,21.945a5.274,5.274,0,0,1,7.714.211,5.686,5.686,0,0,1-.506,7.662L91.19,36.828v.015L60.247,68.01a2.444,2.444,0,0,0,0,3.437,2.4,2.4,0,0,0,3.409,0L94.574,40.274a4.945,4.945,0,0,1,3.891-1.565,5.145,5.145,0,0,1,4.949,6.229h0a5.788,5.788,0,0,1-.181.729c-.034.1-.067.207-.106.309-.067.18-.14.355-.222.527a5.466,5.466,0,0,1-.275.486c-.067.114-.13.228-.2.338a6.153,6.153,0,0,1-.656.795L91.5,58.518l-.014.015L71.161,79.012a2.444,2.444,0,0,0,0,3.437,2.4,2.4,0,0,0,3.409,0L94.847,62a.208.208,0,0,0,.041-.027,5,5,0,0,1,6.54-.744c.116.073.241.126.35.209s.229.214.347.318a5.8,5.8,0,0,1,.46.423.566.566,0,0,0,.034.046,5.637,5.637,0,0,1,.964,1.757,5.262,5.262,0,0,1,.219,1.388q0,.136,0,.27a6.1,6.1,0,0,1-.7,2.741c-.053.1-.108.2-.169.306a5.85,5.85,0,0,1-.8,1.06c-.027.029-.046.063-.075.092l-32.734,33c-.723.729-1.446,1.4-2.208,2.046a35.957,35.957,0,0,1-36.945,5.971q-1.316-.54-2.606-1.188a36.228,36.228,0,0,1-10.584-8.107Zm94.731-8.588-40.086,23.33a35.843,35.843,0,0,1-32.659,1.811,39.294,39.294,0,0,0,9.037.051c.241-.024.465-.075.7-.1,1.205-.148,2.382-.338,3.56-.591.417-.087.824-.207,1.239-.309.991-.243,1.972-.515,2.943-.836.463-.151.916-.321,1.374-.486.914-.338,1.813-.7,2.7-1.108.46-.209.918-.42,1.374-.649.873-.435,1.726-.911,2.572-1.412.431-.243.868-.5,1.292-.775.87-.559,1.709-1.169,2.541-1.8.364-.272.738-.525,1.094-.812q1.564-1.269,3.023-2.712c.108-.1.227-.19.333-.3l7.923-7.991H80.7a2.4,2.4,0,0,0,1.205-.326l24.876-14.482.027-.022a5.3,5.3,0,0,1,7.364,2.253,5.672,5.672,0,0,1-2.456,7.264Zm5.255-21.046-12.607,7.339c-.014,0-.022.024-.036.032L92.942,85.938,105.5,73.276a10.7,10.7,0,0,0,1.164-1.424c.113-.16.212-.321.316-.486a10.844,10.844,0,0,0,.564-1.023c.108-.221.224-.437.316-.663a11.545,11.545,0,0,0,.648-2.386c.039-.243.077-.469.1-.7.031-.323.046-.644.046-.972,0-.243-.017-.486-.034-.729a3.324,3.324,0,0,0-.017-.411l3.461-2.017h0a5.3,5.3,0,0,1,7.391,2.2,5.684,5.684,0,0,1-2.48,7.271Zm1.205-18.64-8.521,4.965h0l-2.794,1.626a10,10,0,0,0-.689-.95,10.7,10.7,0,0,0-1.012-.972c-.039-.032-.07-.073-.108-.1-.2-.168-.424-.3-.639-.452s-.4-.3-.607-.433A9.95,9.95,0,0,0,101,55.83l4.2-4.236a11.307,11.307,0,0,0,1.109-1.366c.13-.182.241-.365.366-.552.176-.282.33-.571.482-.865a10.741,10.741,0,0,0,.682-1.674c.024-.073.055-.141.077-.214l5.351-3.116a5.282,5.282,0,0,1,7.376,2.207,5.7,5.7,0,0,1-2.466,7.278Z" transform="translate(-2.977 13.929)" fill="#03a9f5"/>
  <path id="Path_526" data-name="Path 526" d="M53.212,25.945a2.43,2.43,0,0,0,3.436,0l15.8-15.8a2.43,2.43,0,1,0-3.437-3.437l-15.8,15.8A2.43,2.43,0,0,0,53.212,25.945Z" transform="translate(66.843 1.291)" fill="#03a9f5"/>
  <path id="Path_527" data-name="Path 527" d="M67.33,14.348,55.179,21.638a2.43,2.43,0,1,0,2.5,4.166l12.151-7.291a2.43,2.43,0,1,0-2.5-4.166Z" transform="translate(68.988 12.533)" fill="#03a9f5"/>
  <path id="Path_528" data-name="Path 528" d="M49.345,25.192A2.43,2.43,0,0,0,52.606,24.1L59.9,9.522a2.431,2.431,0,0,0-4.35-2.173L48.256,21.931A2.43,2.43,0,0,0,49.345,25.192Z" transform="translate(60.406 1.297)" fill="#03a9f5"/>
  <path id="Path_529" data-name="Path 529" d="M29.488,23.4a2.43,2.43,0,1,0,4.467-1.915L26.664,4.473A2.43,2.43,0,1,0,22.2,6.388Z" transform="translate(23.867 -3)" fill="#03a9f5"/>
  <path id="Path_530" data-name="Path 530" d="M31.43,23.442a2.43,2.43,0,0,0,2.43-2.43V6.43a2.43,2.43,0,1,0-4.86,0V21.011A2.43,2.43,0,0,0,31.43,23.442Z" transform="translate(33.772 -1.569)" fill="#03a9f5"/>
  <path id="Path_531" data-name="Path 531" d="M27.254,23.1a2.431,2.431,0,0,0,3.8-3.038L21.329,7.912a2.431,2.431,0,1,0-3.8,3.038Z" transform="translate(16.806 2.721)" fill="#03a9f5"/>
</svg>
