<?xml version="1.0" encoding="UTF-8"?>
<svg width="700pt" height="700pt" version="1.1" viewBox="0 0 700 700" xmlns="http://www.w3.org/2000/svg" xmlns:xlink="http://www.w3.org/1999/xlink">
 <defs>
  <symbol id="b" overflow="visible">
   <path d="m39.078-2.3281c-2.0117 1.043-4.1094 1.8281-6.2969 2.3594s-4.4648 0.79688-6.8281 0.79688c-7.0859 0-12.699-1.9766-16.844-5.9375-4.1367-3.957-6.2031-9.3281-6.2031-16.109 0-6.7891 2.0664-12.164 6.2031-16.125 4.1445-3.9688 9.7578-5.9531 16.844-5.9531 2.3633 0 4.6406 0.26562 6.8281 0.79688s4.2852 1.3242 6.2969 2.375v8.7969c-2.0312-1.3828-4.0391-2.3984-6.0156-3.0469-1.9688-0.64453-4.0469-0.96875-6.2344-0.96875-3.9062 0-6.9844 1.2578-9.2344 3.7656-2.2422 2.5-3.3594 5.9531-3.3594 10.359 0 4.3867 1.1172 7.8359 3.3594 10.344 2.25 2.5 5.3281 3.75 9.2344 3.75 2.1875 0 4.2656-0.32031 6.2344-0.96875 1.9766-0.64453 3.9844-1.6602 6.0156-3.0469z"/>
  </symbol>
  <symbol id="e" overflow="visible">
   <path d="m16.031-40.953v9.0625h10.516v7.2812h-10.516v13.531c0 1.4805 0.28906 2.4805 0.875 3 0.59375 0.52344 1.7656 0.78125 3.5156 0.78125h5.2344v7.2969h-8.7344c-4.0312 0-6.8867-0.83594-8.5625-2.5156-1.6797-1.6875-2.5156-4.5391-2.5156-8.5625v-13.531h-5.0781v-7.2812h5.0781v-9.0625z"/>
  </symbol>
  <symbol id="a" overflow="visible">
   <path d="m26.594-27.234v-17.078h10.266v44.312h-10.266v-4.6094c-1.3984 1.875-2.9453 3.25-4.6406 4.125-1.6875 0.875-3.6406 1.3125-5.8594 1.3125-3.9297 0-7.1562-1.5625-9.6875-4.6875-2.5234-3.125-3.7812-7.1445-3.7812-12.062 0-4.9141 1.2578-8.9375 3.7812-12.062 2.5312-3.125 5.7578-4.6875 9.6875-4.6875 2.1953 0 4.1445 0.44531 5.8438 1.3281 1.707 0.88672 3.2578 2.2578 4.6562 4.1094zm-6.7188 20.656c2.1875 0 3.8516-0.79688 5-2.3906 1.1445-1.5938 1.7188-3.9102 1.7188-6.9531 0-3.0391-0.57422-5.3594-1.7188-6.9531-1.1484-1.5938-2.8125-2.3906-5-2.3906-2.168 0-3.8242 0.79688-4.9688 2.3906-1.1484 1.5938-1.7188 3.9141-1.7188 6.9531 0 3.043 0.57031 5.3594 1.7188 6.9531 1.1445 1.5938 2.8008 2.3906 4.9688 2.3906z"/>
  </symbol>
  <symbol id="d" overflow="visible">
   <path d="m21.875-6.5781c2.1758 0 3.8359-0.79688 4.9844-2.3906 1.1562-1.5938 1.7344-3.9102 1.7344-6.9531 0-3.0391-0.57812-5.3594-1.7344-6.9531-1.1484-1.5938-2.8086-2.3906-4.9844-2.3906-2.1875 0-3.8672 0.80469-5.0312 2.4062-1.168 1.6055-1.75 3.918-1.75 6.9375 0 3.0234 0.58203 5.3359 1.75 6.9375 1.1641 1.6055 2.8438 2.4062 5.0312 2.4062zm-6.7812-20.656c1.4062-1.8516 2.9609-3.2227 4.6719-4.1094 1.707-0.88281 3.6719-1.3281 5.8906-1.3281 3.9375 0 7.1641 1.5625 9.6875 4.6875 2.5195 3.125 3.7812 7.1484 3.7812 12.062 0 4.918-1.2617 8.9375-3.7812 12.062-2.5234 3.125-5.75 4.6875-9.6875 4.6875-2.2188 0-4.1836-0.44531-5.8906-1.3281-1.7109-0.88281-3.2656-2.2539-4.6719-4.1094v4.6094h-10.188v-44.312h10.188z"/>
  </symbol>
  <symbol id="c" overflow="visible">
   <path d="m5.3594-42.516h13.953l9.6875 22.75 9.7344-22.75h13.922v42.516h-10.359v-31.094l-9.7969 22.922h-6.9531l-9.7969-22.922v31.094h-10.391z"/>
  </symbol>
 </defs>
 <g>
  <path d="m109.36 520.64 54.66-13.66-40.871-41.477z" fill="#5f5f5f" fill-rule="evenodd"/>
  <path d="m133.62 442.88 53.109 53.898 286.78-286.78-53.504-53.504z" fill="#5f5f5f" fill-rule="evenodd"/>
  <path d="m233.33 525h30.496c14.598 0 27.652-9.0547 32.773-22.715l7.4766-19.926c1.707-4.5508 6.0586-7.5742 10.922-7.5742s9.2148 3.0234 10.922 7.5742l4.8281 12.855c6.7188 17.922 23.836 29.785 42.969 29.785h0.023438c18.621 0 35.359-11.328 42.27-28.617l16.496-41.219c1.7617-4.4336 6.0547-7.3398 10.824-7.3398 4.7734 0 9.0664 2.9062 10.828 7.3398l19.145 47.832c5.3086 13.289 18.176 22.004 32.492 22.004h7.5352c6.4414 0 11.668-5.2266 11.668-11.668 0-6.4375-5.2266-11.664-11.668-11.664h-7.5352c-4.7734 0-9.0664-2.9062-10.828-7.3398l-19.145-47.832c-5.3086-13.289-18.176-22.004-32.492-22.004-14.312 0-27.184 8.7148-32.492 22.004l-16.496 41.219c-3.3711 8.4219-11.527 13.953-20.602 13.953h-0.023438c-9.4023 0-17.828-5.8359-21.129-14.645l-4.8164-12.855c-5.125-13.66-18.18-22.715-32.773-22.715s-27.648 9.0547-32.773 22.715l-7.4766 19.926c-1.7031 4.5508-6.0547 7.5742-10.922 7.5742h-30.496c-6.4375 0-11.664 5.2266-11.664 11.664 0 6.4414 5.2266 11.668 11.664 11.668z" fill="#5f5f5f" fill-rule="evenodd"/>
  <path fill="#5f5f5f" d="m571.67 513.33c0 6.4453-5.2266 11.668-11.668 11.668s-11.668-5.2227-11.668-11.668c0-6.4414 5.2266-11.664 11.668-11.664s11.668 5.2227 11.668 11.664" fill-rule="evenodd"/>
  <path d="m531.84 151.67-41.836 41.836-53.504-53.504 103.59-103.59c2.1797-2.1797 5.1562-3.418 8.2461-3.418 3.0938 0 6.0664 1.2383 8.25 3.418l37.008 37.008c2.1797 2.1836 3.418 5.1562 3.418 8.25 0 3.0898-1.2383 6.0664-3.418 8.2461l-45.258 45.258 3.418 3.418c6.5586 6.5547 10.258 15.457 10.258 24.742 0 9.2891-3.6992 18.191-10.258 24.746l-93.332 93.332c-2.1914 2.1953-3.418 5.1562-3.418 8.25v13.672c0 6.4414-5.2266 11.668-11.668 11.668-6.4375 0-11.664-5.2266-11.664-11.668v-13.672c0-9.2734 3.6836-18.176 10.254-24.746l93.332-93.332c2.1836-2.1836 3.418-5.1562 3.418-8.25 0-3.0898-1.2344-6.0664-3.418-8.2461z" fill="#5f5f5f" fill-rule="evenodd"/>
 </g>
</svg>
