<svg xmlns="http://www.w3.org/2000/svg" width="56.099" height="64.51" viewBox="0 0 56.099 64.51">
  <g id="Group_4619" data-name="Group 4619" transform="translate(-4707.883 -4269.964)">
    <g id="noun-automobile-seat-2378403" transform="translate(4708 4270.064)">
      <path id="Path_1290" data-name="Path 1290" d="M181.647,28.97c-1.341-1.947-1.107-5.452-.394-7.614.673-2.039,2.123-4.2,4.633-4.174l4.822.058a5.255,5.255,0,0,1,2.177.429,3.861,3.861,0,0,1,1.771,1.72,15.138,15.138,0,0,1,1.57,5.386,6.707,6.707,0,0,1-.7,4.332c-.2.289-.274.23.128.255.323.021.645.052.967.094a7.26,7.26,0,0,1,4.453,1.963c1.361,1.4,1.856,3.438,1.9,5.962.038,2.36-.119,5.232-.374,8.142-.319,3.639-.792,7.35-1.23,10.2-.452,2.93-1.079,5.364-2.515,7.088a6.929,6.929,0,0,1-3.215,2.153c-.562.189-.526.088-.011.3a3.748,3.748,0,0,1,1.962,1.712c1.239,2.358-.419,5.379-1.924,7.249a11.546,11.546,0,0,1-7.231,4.3c-5.084.951-14.822-.4-20.091-1.181a52.569,52.569,0,0,1-9-1.854c-3.764-1.381-4.712-4.864-3.656-8.314q.132-.432.309-.869a5.38,5.38,0,0,1,2.722-2.83c3.991-2.016,10.89-1.086,15.456-.386-3.686-2.044-4.944-5.568-4.915-9.594.032-4.492,1.679-9.6,3.31-13.934.263-.7.509-1.4.76-2.105,1.495-4.188,3.019-8,8.323-8.483Zm-20.6,40.884c1.377.328,3.258.666,5.277.979,3.428.532,7.029,1.2,10.494.86a20.42,20.42,0,0,0,10.533-4.2,17.443,17.443,0,0,1,3.1-1.857c.337-.139.339-.106-.038-.122-3.7-.158-7.582-.523-11.256-1.032a12.3,12.3,0,0,0-3.48-.173c-4.785.36-14,1.61-16.657,3.408-.493.334-.678.667-.435.985a5.148,5.148,0,0,0,2.464,1.149Zm-2.971-1.246c-.125-.423.139-.827.7-1.208,2.8-1.895,12.042-3.062,16.051-3.415.746-.066.6-.041-.043-.141-4.389-.679-11.609-1.8-15.618.133-1.031.5-2.435,1.541-2.374,2.756a2.715,2.715,0,0,0,1.28,1.875Zm34.741-3.041c-1.9-.047-3.4.988-5.224,2.246a20.765,20.765,0,0,1-10.8,4.278c.46.033.839.051,1.116.054a34.947,34.947,0,0,0,8.95-.948c2.092-.527,6.778-2.212,7.955-4.093.765-1.223-1.151-1.466-2-1.537Zm2.861.836a1.573,1.573,0,0,1-.274,1.037c-1.3,2.077-6.058,3.809-8.37,4.391a35.673,35.673,0,0,1-9.133.969c-1.685-.019-7.039-.6-11.687-1.321-2.057-.319-3.981-.668-5.4-1.011-1.708-.412-3.824-1.245-4.524-2.935-.873,3.07-.044,6.115,3.295,7.34a52.235,52.235,0,0,0,8.86,1.818c5.161.768,14.882,2.113,19.854,1.184a10.884,10.884,0,0,0,6.817-4.052c1.319-1.638,2.955-4.468,1.857-6.559a2.856,2.856,0,0,0-.9-1.01c-.828-.586-.449-.236-.395.149Zm1.744-3.521c-.28-4.052.531-11.264,1.275-17.881.093-.827.185-1.645.273-2.442-1.7,3.754-5.381,3.037-6.132,8.14-.2,1.376-.416,2.7-.618,3.951-.733,4.541-1.318,8.163-.692,9.912.12.335.077.327.415.319a9,9,0,0,0,5.243-1.441c.285-.21.259-.221.236-.559ZM178.975,43.1l14.012.708c.338-3.208.837-10.67,2.451-13.506.193-.338.271-.287-.173-.307q-.422-.019-.875-.017a14.888,14.888,0,0,1-5.184.723c-2.8,0-5.745-.409-6.843-1.028a26.049,26.049,0,0,0-1.756,5.417c-.569,2.337-1.128,5.127-1.632,8.009Zm13.971,1.1-14.039-.709c-.145.836-.284,1.678-.418,2.518l-.032.2,14.178.817q.167-1.454.311-2.823Zm-.357,3.215L178.4,46.6c-.142.912-.276,1.821-.4,2.718l14.219.915c.133-.921.26-1.861.374-2.815Zm-.431,3.206L177.944,49.7c-.124.925-.236,1.835-.333,2.721l14.113,1c.145-.907.293-1.845.435-2.806Zm-.5,3.2-14.092-1c-.1.943-.181,1.857-.241,2.728l13.884,1.072c.146-.934.3-1.867.448-2.8Zm-.509,3.19L177.3,55.938c-.057.911-.094,1.827-.092,2.74l13.557,1.129c.1-.867.232-1.8.384-2.8Zm-.427,3.192-13.511-1.125a16.94,16.94,0,0,0,.227,2.773L190.6,63.019a19.842,19.842,0,0,1,.128-2.82Zm-.1,3.217-13.1-1.167a3.989,3.989,0,0,0,.327.915c.306.576.444.536,1.046.623a114.914,114.914,0,0,0,11.766,1.083c.346.013.253.035.159-.287a5.941,5.941,0,0,1-.2-1.167Zm10.317-31.122c-.672.477-.721,2.02-.784,4.078-.04,1.294-.1,2.551-.236,3.841-.163,1.563-.346,3.192-.534,4.858-.711,6.324-1.484,13.2-1.3,17.272.016.355-.014.346.228.055,1.341-1.609,1.936-3.947,2.373-6.774s.907-6.527,1.225-10.155c.254-2.9.411-5.758.374-8.08a8.508,8.508,0,0,0-1.345-5.094Zm-1.47,4.061c.068-2.212.12-3.882,1.028-4.564a6.543,6.543,0,0,0-3.779-1.66c-.379-.056-.34-.046-.556.292-1.788,2.8-2.414,12.949-2.844,16.686q-.05.438-.1.872c1.834-3.2,5.3-2.633,6.007-7.87a36.3,36.3,0,0,0,.248-3.755Zm-24.255,8.027c-1.127-1.009-2.245-2.009-2.27-3.881-1.518,4.117-2.97,8.843-3,12.993-.031,4.384,1.965,8.856,6.859,9.933.634.139.5.166.3-.316a12.967,12.967,0,0,1-.582-4.452,71.911,71.911,0,0,1,.752-9.146c.338-2.506-.1-3.374-2.063-5.131Zm.283-.286a6.24,6.24,0,0,1,2.15,2.853q.079-.518.162-1.037c.619-3.883,1.364-7.822,2.129-10.965a29.566,29.566,0,0,1,1.684-5.314c-4.793.49-6.232,4.078-7.64,8.02-1.023,2.866-1,4.192,1.514,6.443Zm19.231-15.085c.809-.786.99-2.427.817-4.177a14.16,14.16,0,0,0-1.489-5.14c-.186-.326-.8-1.39-1.154-.694a7.506,7.506,0,0,0-.422,3.321c.009,1.791.289,5.037,1.25,6.584.334.539.549.542,1,.106Zm-1.3.614a2.381,2.381,0,0,1-.293-.387c-1.04-1.675-1.335-4.978-1.344-6.915a9.459,9.459,0,0,1,.489-3.606c.224-.444.528-.386.075-.554a4.893,4.893,0,0,0-1.656-.269l-4.822-.058c-2.167-.026-3.4,1.979-3.968,3.715-.647,1.961-1,5.969.661,7.465.682.614,3.71,1.036,6.634,1.033a17.638,17.638,0,0,0,4.223-.423Z" transform="translate(-147.091 -17.181)" fill="#491493" stroke="#491493" stroke-width="0.2"/>
      <g id="Group_4544" data-name="Group 4544" transform="translate(0 64.153)">
        <path id="Path_1291" data-name="Path 1291" d="M0-.04H0v0l0,0v0H0v0H0v0Z" transform="translate(0 0.047)" fill="#491493" stroke="#491493" stroke-width="0.2"/>
      </g>
      <g id="Group_4545" data-name="Group 4545" transform="translate(0.006 64.156)">
        <path id="Path_1292" data-name="Path 1292" d="M0-.029a0,0,0,0,0,0,0v0H0v0H0Z" transform="translate(0 0.031)" fill="#491493" stroke="#491493" stroke-width="0.2"/>
      </g>
      <g id="Group_4546" data-name="Group 4546" transform="translate(0.01 64.156)">
        <path id="Path_1293" data-name="Path 1293" d="M0-.029H0v0H0v0H0v0l0,0A0,0,0,0,1,0-.029Zm0,0H0v0Z" transform="translate(0 0.031)" fill="#491493" stroke="#491493" stroke-width="0.2"/>
      </g>
      <g id="Group_4547" data-name="Group 4547" transform="translate(0.015 64.156)">
        <path id="Path_1294" data-name="Path 1294" d="M0-.029v0l0,0Zm0,0v0H0v0H0v0H0v0H0Z" transform="translate(0 0.031)" fill="#491493" stroke="#491493" stroke-width="0.2"/>
      </g>
      <g id="Group_4548" data-name="Group 4548" transform="translate(0.021 64.153)">
        <path id="Path_1295" data-name="Path 1295" d="M0-.047v0H0v0H0V-.047Z" transform="translate(0 0.047)" fill="#491493" stroke="#491493" stroke-width="0.2"/>
      </g>
      <g id="Group_4549" data-name="Group 4549" transform="translate(0.025 64.156)">
        <path id="Path_1296" data-name="Path 1296" d="M0-.029H0v0H0v0H0v0l0,0A0,0,0,0,1,0-.029Zm0,0H0v0Z" transform="translate(0 0.031)" fill="#491493" stroke="#491493" stroke-width="0.2"/>
      </g>
      <g id="Group_4550" data-name="Group 4550" transform="translate(0.03 64.153)">
        <path id="Path_1297" data-name="Path 1297" d="M0-.045v0H0v0l0,0Zm0,0,0,0H0v0Z" transform="translate(0 0.047)" fill="#491493" stroke="#491493" stroke-width="0.2"/>
      </g>
      <g id="Group_4551" data-name="Group 4551" transform="translate(0.039 64.153)">
        <path id="Path_1298" data-name="Path 1298" d="M0-.04H0v0a0,0,0,0,0,0,0v0Zm0,0H0v0H0V-.047H0Z" transform="translate(0 0.047)" fill="#491493" stroke="#491493" stroke-width="0.2"/>
      </g>
      <g id="Group_4552" data-name="Group 4552" transform="translate(0.045 64.156)">
        <path id="Path_1299" data-name="Path 1299" d="M0-.031H0v0l0,0,0,0v0H0v0H0Z" transform="translate(0 0.031)" fill="#491493" stroke="#491493" stroke-width="0.2"/>
      </g>
      <g id="Group_4553" data-name="Group 4553" transform="translate(0.052 64.153)">
        <path id="Path_1300" data-name="Path 1300" d="M0-.045H0v0H0v0Zm0,0v0a0,0,0,0,1,0,0l0,0H0v0Z" transform="translate(0 0.047)" fill="#491493" stroke="#491493" stroke-width="0.2"/>
      </g>
      <g id="Group_4554" data-name="Group 4554" transform="translate(0.06 64.153)">
        <path id="Path_1301" data-name="Path 1301" d="M0-.047H0V-.04H0Z" transform="translate(0 0.047)" fill="#491493" stroke="#491493" stroke-width="0.2"/>
      </g>
      <g id="Group_4555" data-name="Group 4555" transform="translate(0.063 64.156)">
        <path id="Path_1302" data-name="Path 1302" d="M0-.029H0v0H0v0H0v0l0,0A0,0,0,0,1,0-.029Zm0,0H0v0Z" transform="translate(0 0.031)" fill="#491493" stroke="#491493" stroke-width="0.2"/>
      </g>
      <g id="Group_4556" data-name="Group 4556" transform="translate(0.068 64.153)">
        <path id="Path_1303" data-name="Path 1303" d="M0-.047H0v0l0,0,0,0,0,0,0,0v0H0Z" transform="translate(0 0.047)" fill="#491493" stroke="#491493" stroke-width="0.2"/>
      </g>
      <g id="Group_4557" data-name="Group 4557" transform="translate(0.073 64.156)">
        <path id="Path_1304" data-name="Path 1304" d="M0-.031v0a0,0,0,0,0,0,0v0H0v0H0v0H0v0H0v0H0Z" transform="translate(0 0.031)" fill="#491493" stroke="#491493" stroke-width="0.2"/>
      </g>
      <g id="Group_4558" data-name="Group 4558" transform="translate(0.078 64.156)">
        <path id="Path_1305" data-name="Path 1305" d="M0-.029v0l0,0Zm0,0v0H0v0H0v0H0v0H0Z" transform="translate(0 0.031)" fill="#491493" stroke="#491493" stroke-width="0.2"/>
      </g>
      <g id="Group_4559" data-name="Group 4559" transform="translate(0.083 64.156)">
        <path id="Path_1306" data-name="Path 1306" d="M0-.029v0H0v0H0v0H0Z" transform="translate(0 0.031)" fill="#491493" stroke="#491493" stroke-width="0.2"/>
      </g>
      <g id="Group_4560" data-name="Group 4560" transform="translate(0.089 64.153)">
        <path id="Path_1307" data-name="Path 1307" d="M0-.045v0H0v0l0,0Zm0,0,0,0H0v0Z" transform="translate(0 0.047)" fill="#491493" stroke="#491493" stroke-width="0.2"/>
      </g>
      <g id="Group_4561" data-name="Group 4561" transform="translate(0.095 64.156)">
        <path id="Path_1308" data-name="Path 1308" d="M0-.029a0,0,0,0,0,0,0v0H0v0H0Z" transform="translate(0 0.031)" fill="#491493" stroke="#491493" stroke-width="0.2"/>
      </g>
      <g id="Group_4562" data-name="Group 4562" transform="translate(0.102 64.153)">
        <path id="Path_1309" data-name="Path 1309" d="M0-.047H0a0,0,0,0,1,0,0v0H0v0H0Zm0,0v0H0v0Z" transform="translate(0 0.047)" fill="#491493" stroke="#491493" stroke-width="0.2"/>
      </g>
      <g id="Group_4563" data-name="Group 4563" transform="translate(0.108 64.156)">
        <path id="Path_1310" data-name="Path 1310" d="M0-.029v0l0,0Zm0,0v0H0v0H0v0H0v0H0Z" transform="translate(0 0.031)" fill="#491493" stroke="#491493" stroke-width="0.2"/>
      </g>
      <g id="Group_4564" data-name="Group 4564" transform="translate(0.113 64.156)">
        <path id="Path_1311" data-name="Path 1311" d="M0-.029v0H0v0H0v0H0Z" transform="translate(0 0.031)" fill="#491493" stroke="#491493" stroke-width="0.2"/>
      </g>
      <g id="Group_4565" data-name="Group 4565" transform="translate(0.119 64.156)">
        <path id="Path_1312" data-name="Path 1312" d="M0-.029v0l0,0Zm0,0v0H0v0H0v0H0v0H0Z" transform="translate(0 0.031)" fill="#491493" stroke="#491493" stroke-width="0.2"/>
      </g>
      <g id="Group_4566" data-name="Group 4566" transform="translate(0.125 64.156)">
        <path id="Path_1313" data-name="Path 1313" d="M0-.031v0a0,0,0,0,0,0,0v0H0v0H0v0H0v0H0v0H0Z" transform="translate(0 0.031)" fill="#491493" stroke="#491493" stroke-width="0.2"/>
      </g>
      <g id="Group_4567" data-name="Group 4567" transform="translate(0.129 64.156)">
        <path id="Path_1314" data-name="Path 1314" d="M0-.031v0l0,0H0Zm0,0a0,0,0,0,1,0,0v0H0v0Z" transform="translate(0 0.031)" fill="#491493" stroke="#491493" stroke-width="0.2"/>
      </g>
      <g id="Group_4568" data-name="Group 4568" transform="translate(0.135 64.156)">
        <path id="Path_1315" data-name="Path 1315" d="M0-.031H0v0l0,0v0H0Z" transform="translate(0 0.031)" fill="#491493" stroke="#491493" stroke-width="0.2"/>
      </g>
      <g id="Group_4569" data-name="Group 4569" transform="translate(0.14 64.156)">
        <path id="Path_1316" data-name="Path 1316" d="M0-.031v0a0,0,0,0,0,0,0v0H0v0H0v0H0v0H0v0H0Z" transform="translate(0 0.031)" fill="#491493" stroke="#491493" stroke-width="0.2"/>
      </g>
      <g id="Group_4570" data-name="Group 4570" transform="translate(0.145 64.153)">
        <path id="Path_1317" data-name="Path 1317" d="M0-.047H0v0l0,0,0,0,0,0,0,0v0H0Z" transform="translate(0 0.047)" fill="#491493" stroke="#491493" stroke-width="0.2"/>
      </g>
      <g id="Group_4571" data-name="Group 4571" transform="translate(0.15 64.156)">
        <path id="Path_1318" data-name="Path 1318" d="M0-.031H0v0l0,0,0,0v0H0v0H0Z" transform="translate(0 0.031)" fill="#491493" stroke="#491493" stroke-width="0.2"/>
      </g>
      <g id="Group_4572" data-name="Group 4572" transform="translate(0.156 64.153)">
        <path id="Path_1319" data-name="Path 1319" d="M0-.045H0v0H0Zm0,0H0v0H0Z" transform="translate(0 0.047)" fill="#491493" stroke="#491493" stroke-width="0.2"/>
      </g>
      <g id="Group_4573" data-name="Group 4573" transform="translate(0 64.161)">
        <path id="Path_1320" data-name="Path 1320" d="M0-.047v0H0v0H0v0l0,0Z" transform="translate(0 0.047)" fill="#491493" stroke="#491493" stroke-width="0.2"/>
      </g>
      <g id="Group_4574" data-name="Group 4574" transform="translate(0.003 64.164)">
        <path id="Path_1321" data-name="Path 1321" d="M0-.029a0,0,0,0,0,0,0v0H0v0H0Z" transform="translate(0 0.031)" fill="#491493" stroke="#491493" stroke-width="0.2"/>
      </g>
      <g id="Group_4575" data-name="Group 4575" transform="translate(0.007 64.164)">
        <path id="Path_1322" data-name="Path 1322" d="M0-.031v0l0,0H0Zm0,0a0,0,0,0,1,0,0v0H0v0Z" transform="translate(0 0.031)" fill="#491493" stroke="#491493" stroke-width="0.2"/>
      </g>
      <g id="Group_4576" data-name="Group 4576" transform="translate(0.013 64.164)">
        <path id="Path_1323" data-name="Path 1323" d="M0-.031h0v0a0,0,0,0,0,0,0v0H0v0H0v0H0Z" transform="translate(0 0.031)" fill="#491493" stroke="#491493" stroke-width="0.2"/>
      </g>
      <g id="Group_4577" data-name="Group 4577" transform="translate(0.024 64.161)">
        <path id="Path_1324" data-name="Path 1324" d="M0-.047v0H0v0H0V-.047Z" transform="translate(0 0.047)" fill="#491493" stroke="#491493" stroke-width="0.2"/>
      </g>
      <g id="Group_4578" data-name="Group 4578" transform="translate(0.028 64.161)">
        <path id="Path_1325" data-name="Path 1325" d="M0-.042v0H0v0H0V-.047H0v0H0Z" transform="translate(0 0.047)" fill="#491493" stroke="#491493" stroke-width="0.2"/>
      </g>
      <g id="Group_4579" data-name="Group 4579" transform="translate(0.034 64.164)">
        <path id="Path_1326" data-name="Path 1326" d="M0-.029H0v0H0v0H0v0l0,0A0,0,0,0,1,0-.029Zm0,0H0v0Z" transform="translate(0 0.031)" fill="#491493" stroke="#491493" stroke-width="0.2"/>
      </g>
      <g id="Group_4580" data-name="Group 4580" transform="translate(0.042 64.161)">
        <path id="Path_1327" data-name="Path 1327" d="M0-.047H0l0,0v0h0V-.04H0l0,0v0H0Z" transform="translate(0 0.047)" fill="#491493" stroke="#491493" stroke-width="0.2"/>
      </g>
      <g id="Group_4581" data-name="Group 4581" transform="translate(0.049 64.164)">
        <path id="Path_1328" data-name="Path 1328" d="M0-.031v0l0,0H0Zm0,0a0,0,0,0,1,0,0v0H0v0Z" transform="translate(0 0.031)" fill="#491493" stroke="#491493" stroke-width="0.2"/>
      </g>
      <g id="Group_4582" data-name="Group 4582" transform="translate(0.055 64.164)">
        <path id="Path_1329" data-name="Path 1329" d="M0-.029v0H0v0l0,0v0H0Z" transform="translate(0 0.031)" fill="#491493" stroke="#491493" stroke-width="0.2"/>
      </g>
      <g id="Group_4583" data-name="Group 4583" transform="translate(0.06 64.164)">
        <path id="Path_1330" data-name="Path 1330" d="M0-.029v0H0v0H0v0H0Z" transform="translate(0 0.031)" fill="#491493" stroke="#491493" stroke-width="0.2"/>
      </g>
      <g id="Group_4584" data-name="Group 4584" transform="translate(0.069 64.161)">
        <path id="Path_1331" data-name="Path 1331" d="M0-.047H0a0,0,0,0,1,0,0v0H0v0H0Zm0,0v0H0v0Z" transform="translate(0 0.047)" fill="#491493" stroke="#491493" stroke-width="0.2"/>
      </g>
      <g id="Group_4585" data-name="Group 4585" transform="translate(0.075 64.164)">
        <path id="Path_1332" data-name="Path 1332" d="M0-.029a0,0,0,0,0,0,0v0H0v0H0Z" transform="translate(0 0.031)" fill="#491493" stroke="#491493" stroke-width="0.2"/>
      </g>
      <g id="Group_4586" data-name="Group 4586" transform="translate(0.079 64.164)">
        <path id="Path_1333" data-name="Path 1333" d="M0-.031v0l0,0H0Zm0,0a0,0,0,0,1,0,0v0H0v0Z" transform="translate(0 0.031)" fill="#491493" stroke="#491493" stroke-width="0.2"/>
      </g>
      <g id="Group_4587" data-name="Group 4587" transform="translate(0.085 64.161)">
        <path id="Path_1334" data-name="Path 1334" d="M0-.045H0v0a0,0,0,0,1,0,0Zm0,0H0v0H0Z" transform="translate(0 0.047)" fill="#491493" stroke="#491493" stroke-width="0.2"/>
      </g>
      <g id="Group_4588" data-name="Group 4588" transform="translate(0.087 64.164)">
        <path id="Path_1335" data-name="Path 1335" d="M0-.029H0v0H0v0H0v0l0,0A0,0,0,0,1,0-.029Zm0,0H0v0Z" transform="translate(0 0.031)" fill="#491493" stroke="#491493" stroke-width="0.2"/>
      </g>
      <g id="Group_4589" data-name="Group 4589" transform="translate(0.093 64.164)">
        <path id="Path_1336" data-name="Path 1336" d="M0-.031v0a0,0,0,0,0,0,0v0H0v0H0v0l0,0Z" transform="translate(0 0.031)" fill="#491493" stroke="#491493" stroke-width="0.2"/>
      </g>
      <g id="Group_4590" data-name="Group 4590" transform="translate(0.098 64.161)">
        <path id="Path_1337" data-name="Path 1337" d="M0-.047v0H0v0H0V-.047Z" transform="translate(0 0.047)" fill="#491493" stroke="#491493" stroke-width="0.2"/>
      </g>
    </g>
  </g>
</svg>
