<svg id="Group_4621" data-name="Group 4621" xmlns="http://www.w3.org/2000/svg" width="45.214" height="48.862" viewBox="0 0 45.214 48.862">
  <path id="Path_1111" data-name="Path 1111" d="M27.406,45.4H22.525a.925.925,0,1,0,0,1.85h4.881a.925.925,0,1,0,0-1.85Z" transform="translate(-13.533 -23.358)" fill="#a3a6b4"/>
  <path id="Path_1112" data-name="Path 1112" d="M49.206,45.4H44.325a.925.925,0,1,0,0,1.85h4.881a.921.921,0,0,0,.925-.925A.89.89,0,0,0,49.206,45.4Z" transform="translate(-24.133 -23.358)" fill="#a3a6b4"/>
  <path id="Path_1113" data-name="Path 1113" d="M71.106,45.4H66.225a.925.925,0,1,0,0,1.85h4.881a.925.925,0,1,0,0-1.85Z" transform="translate(-34.78 -23.358)" fill="#a3a6b4"/>
  <path id="Path_1114" data-name="Path 1114" d="M27.406,61.6H22.525a.925.925,0,1,0,0,1.85h4.881a.925.925,0,1,0,0-1.85Z" transform="translate(-13.533 -31.235)" fill="#a3a6b4"/>
  <path id="Path_1115" data-name="Path 1115" d="M49.206,61.6H44.325a.925.925,0,1,0,0,1.85h4.881a.925.925,0,1,0,0-1.85Z" transform="translate(-24.133 -31.235)" fill="#a3a6b4"/>
  <path id="Path_1116" data-name="Path 1116" d="M71.106,61.6H66.225a.925.925,0,1,0,0,1.85h4.881a.925.925,0,1,0,0-1.85Z" transform="translate(-34.78 -31.235)" fill="#a3a6b4"/>
  <path id="Path_1117" data-name="Path 1117" d="M27.406,77.9H22.525a.925.925,0,1,0,0,1.85h4.881a.925.925,0,1,0,0-1.85Z" transform="translate(-13.533 -39.16)" fill="#a3a6b4"/>
  <path id="Path_1118" data-name="Path 1118" d="M49.206,77.9H44.325a.925.925,0,1,0,0,1.85h4.881a.925.925,0,1,0,0-1.85Z" transform="translate(-24.133 -39.16)" fill="#a3a6b4"/>
  <path id="Path_1119" data-name="Path 1119" d="M71.106,77.9H66.225a.925.925,0,1,0,0,1.85h4.881a.925.925,0,1,0,0-1.85Z" transform="translate(-34.78 -39.16)" fill="#a3a6b4"/>
  <path id="Path_1120" data-name="Path 1120" d="M51.114,17.3h0V11.8a4.714,4.714,0,0,0-4.727-4.727H43.2V5.942a3.442,3.442,0,0,0-6.885,0V7.124H31.95V5.942a3.442,3.442,0,0,0-6.885,0V7.124H20.7V5.942a3.442,3.442,0,0,0-6.885,0V7.124H10.627A4.714,4.714,0,0,0,5.9,11.851V46.635a4.714,4.714,0,0,0,4.727,4.727h35.76a4.714,4.714,0,0,0,4.727-4.727V17.3ZM38.218,5.942a1.541,1.541,0,0,1,3.083,0v4.264a1.541,1.541,0,0,1-3.083,0Zm-11.2,0A1.546,1.546,0,0,1,28.558,4.4,1.58,1.58,0,0,1,30.1,5.942v4.264a1.546,1.546,0,0,1-1.541,1.541,1.58,1.58,0,0,1-1.541-1.541Zm-11.252,0a1.541,1.541,0,0,1,3.083,0v4.264a1.541,1.541,0,0,1-3.083,0ZM10.678,9.025h3.186v1.182a3.442,3.442,0,0,0,6.885,0V9.025h4.367v1.182a3.442,3.442,0,0,0,6.885,0V9.025h4.367v1.182a3.442,3.442,0,0,0,6.885,0V9.025h3.186a2.851,2.851,0,0,1,2.826,2.826v4.521H7.852V11.851A2.851,2.851,0,0,1,10.678,9.025Zm35.76,40.384H10.678a2.851,2.851,0,0,1-2.826-2.826V18.222H49.213V46.584A2.743,2.743,0,0,1,46.439,49.409Z" transform="translate(-5.9 -2.5)" fill="#a3a6b4"/>
</svg>
