<svg xmlns="http://www.w3.org/2000/svg" width="55" height="55" viewBox="0 0 55 55">
  <g id="Group_4633" data-name="Group 4633" transform="translate(-3840 -1163)">
    <g id="Group_4626" data-name="Group 4626" transform="translate(3840 1163.326)">
      <g id="Group_4082" data-name="Group 4082" transform="translate(0 0)">
        <rect id="Rectangle_227" data-name="Rectangle 227" width="55" height="55" rx="3" transform="translate(0 -0.326)" fill="#02bc77" opacity="0.17"/>
        <g id="Group_62" data-name="Group 62" transform="translate(10.579 7.899)">
          <path id="Path_348" data-name="Path 348" d="M512.129,263.189a2.251,2.251,0,0,1-.648-1.7c.026-4.593.014-9.187.012-13.78,0-2.774-1.377-4.149-4.145-4.152-1.338,0-2.677,0-4.094,0a2.917,2.917,0,0,0-1.927-3.323H488.68a2.868,2.868,0,0,0-1.865,3.258c-.309.025-.557.062-.8.063-1.315.005-2.633-.016-3.949.01a3.486,3.486,0,0,0-3.453,3.2,11.17,11.17,0,0,0-.035,1.14q0,13.685,0,27.373c0,2.647.544,3.483,2.907,4.477h24.591a23.442,23.442,0,0,0,4.1-1.6A9.745,9.745,0,0,0,512.129,263.189Zm-21.977-19.62h9.741v3.2h-9.741Zm7.252,32.8a5.716,5.716,0,0,1-.646.077c-4.683.005-9.366-.009-14.047.018-.692.005-.894-.192-.893-.892q.034-13.959,0-27.918c0-.622.147-.906.827-.887,1.342.039,2.684.01,4.089.01.051.513.063.892.13,1.263a2.344,2.344,0,0,0,2.375,2.036q5.749.021,11.5,0a2.463,2.463,0,0,0,2.505-2.32c.028-.286.005-.578.005-.973,1.517,0,2.974,0,4.428,0,.6,0,.5.445.5.815q.005,4.345,0,8.691v4.186c-5.168-1.228-9.373.079-11.976,4.816C494.107,269.116,494.787,272.848,497.4,276.37Zm7.562.081a6.518,6.518,0,0,1-6.643-6.578,6.6,6.6,0,0,1,6.554-6.61,6.68,6.68,0,0,1,6.631,6.569A6.584,6.584,0,0,1,504.966,276.451Z" transform="translate(-478.571 -240.232)" fill="#02bc77"/>
          <path id="Path_349" data-name="Path 349" d="M505.517,290.411l.256,0h.118c-.04,0-.079,0-.118,0C505.688,290.407,505.6,290.409,505.517,290.411Zm-1.087.007c.233.007.467.005.7,0C504.9,290.421,504.663,290.425,504.43,290.418Z" transform="translate(-495.951 -273.956)" fill="#02bc77"/>
          <path id="Path_350" data-name="Path 350" d="M510.14,302.166a1.576,1.576,0,0,1-1.719,1.672q-3.995.023-7.99,0a1.615,1.615,0,1,1-.016-3.218c1.347-.017,2.693-.005,4.04-.005,1.317,0,2.633-.01,3.951,0C509.5,300.632,510.119,301.2,510.14,302.166Z" transform="translate(-492.083 -280.814)" fill="#02bc77"/>
          <path id="Path_351" data-name="Path 351" d="M538.607,282.024c.011,1.026-.648,1.635-1.834,1.658-1.022.019-2.046,0-3.069,0s-2.046.014-3.07,0a1.656,1.656,0,1,1,.04-3.279q3.027-.018,6.053,0C537.9,280.41,538.594,281.031,538.607,282.024Z" transform="translate(-512.308 -267.225)" fill="#02bc77"/>
          <path id="Path_352" data-name="Path 352" d="M503.543,322.24a1.7,1.7,0,0,1-1.9,1.616c-1.024.01-2.048,0-3.07,0s-2.048.014-3.07,0a1.6,1.6,0,0,1-1.79-1.611,1.632,1.632,0,0,1,1.832-1.665q3.069-.021,6.141,0A1.682,1.682,0,0,1,503.543,322.24Z" transform="translate(-488.746 -294.227)" fill="#02bc77"/>
          <path id="Path_353" data-name="Path 353" d="M505.206,281.978a1.55,1.55,0,0,1-1.544,1.667c-.218.017-.436.023-.655.023q-.216,0-.432-.005l-.1,0c-.113,0-.223-.005-.336-.005-.039,0-.077,0-.116,0h-.118l-.256,0-.385.007c-.235.005-.469.007-.7,0-.107,0-.214-.009-.322-.017a1.605,1.605,0,0,1-1.563-1.667,1.584,1.584,0,0,1,1.56-1.583c1.136-.053,2.28-.051,3.418,0A1.561,1.561,0,0,1,505.206,281.978Z" transform="translate(-492.087 -267.201)" fill="#02bc77"/>
          <path id="Path_354" data-name="Path 354" d="M556.526,323.5q-1.528,1.57-3.1,3.1a1.626,1.626,0,0,1-2.473-.021c-.488-.464-.961-.943-1.425-1.428a1.666,1.666,0,0,1-.133-2.414,1.706,1.706,0,0,1,2.428.1c.109.095.212.195.43.4.685-.708,1.319-1.393,1.987-2.048a1.6,1.6,0,0,1,2.4-.1A1.66,1.66,0,0,1,556.526,323.5Z" transform="translate(-525.866 -294.236)" fill="#02bc77"/>
        </g>
      </g>
    </g>
  </g>
</svg>
