<svg xmlns="http://www.w3.org/2000/svg" xmlns:xlink="http://www.w3.org/1999/xlink" version="1.1" x="0px" y="0px" viewBox="0 0 100 125" enable-background="new 0 0 100 100" xml:space="preserve"><polygon fill="none" points="54.764,69.078 54.978,68.301 54.328,68.491 "/><path  fill="#491493" d="M57.526,41.311c-0.617-2.114-1.908-3.723-3.838-4.78c-1.89-1.036-3.922-1.249-6.037-0.63  c-2.114,0.618-3.726,1.894-4.795,3.797c-1.025,1.92-1.232,3.965-0.615,6.078c0.618,2.115,1.89,3.712,3.78,4.748  c1.219,0.668,2.487,1.003,3.789,1.003c0.758,0,1.527-0.113,2.305-0.341c2.116-0.618,3.709-1.905,4.735-3.825  C57.917,45.461,58.144,43.426,57.526,41.311z M56.189,46.993c-0.001,0.003-0.002,0.005-0.004,0.007  c-0.927,1.735-2.367,2.899-4.281,3.459c-1.916,0.561-3.771,0.357-5.519-0.6c-1.708-0.936-2.857-2.381-3.417-4.297  s-0.373-3.77,0.553-5.501c0.964-1.719,2.426-2.874,4.343-3.435c0.715-0.209,1.419-0.313,2.11-0.313c1.16,0,2.281,0.294,3.351,0.88  c1.747,0.957,2.916,2.413,3.475,4.329C57.359,43.437,57.154,45.277,56.189,46.993z"/><path fill="#491493" d="M95.364,28.798c-0.145-0.278-0.397-0.483-0.699-0.568l-25.471-7.17c-0.291-0.082-0.603-0.045-0.866,0.104  c-0.263,0.148-0.456,0.396-0.537,0.688L62.43,41.287l-5.762-25.938c-0.068-0.306-0.259-0.57-0.528-0.729  c-0.269-0.16-0.591-0.201-0.894-0.116l-25.434,7.306c-0.291,0.084-0.536,0.279-0.681,0.544c-0.146,0.266-0.18,0.577-0.095,0.867  l5.423,18.516l-6.255-8.423c-0.18-0.243-0.45-0.404-0.75-0.447c-0.301-0.044-0.604,0.035-0.845,0.217L4.96,49.396  c-0.256,0.193-0.419,0.486-0.448,0.806s0.079,0.636,0.297,0.872l31.49,34.102c0.222,0.241,0.527,0.365,0.834,0.365  c0.236,0,0.474-0.074,0.676-0.225l17.789-13.21c0.242-0.179,0.402-0.447,0.446-0.745c0.016-0.107-0.001-0.213-0.016-0.318  l21.764,6.012c0.101,0.027,0.203,0.041,0.303,0.041c0.472,0,0.909-0.296,1.072-0.762l16.261-46.638  C95.532,29.401,95.509,29.075,95.364,28.798z M37.275,82.885L7.329,50.454l19.734-14.87l9.239,12.441l6.625,22.619  c0.145,0.495,0.598,0.816,1.089,0.816c0.105,0,0.213-0.015,0.319-0.046l7.67-2.243l1.329,1.789L37.275,82.885z M54.764,69.078  l-0.436-0.587l0.65-0.19L54.764,69.078z M55.688,65.727l-10.902,3.189l-13.25-45.239l23.177-6.657l6.428,28.939L55.688,65.727z   M77.373,74.582l-20.23-5.588l12.534-45.439l23.21,6.533L77.373,74.582z"/><path fill="#491493" d="M64.754,46.656c-0.587,2.123-0.346,4.151,0.717,6.026c1.083,1.913,2.709,3.182,4.833,3.77  c0.741,0.205,1.471,0.307,2.187,0.307c1.336,0,2.626-0.356,3.853-1.068c1.905-1.054,3.169-2.665,3.757-4.789  c0.588-2.123,0.336-4.17-0.749-6.084c-1.063-1.876-2.679-3.125-4.802-3.713c-2.121-0.585-4.164-0.349-6.075,0.707  C66.593,42.904,65.341,44.534,64.754,46.656z M72.317,41.55c0.666,0,1.344,0.095,2.031,0.285c1.922,0.531,3.384,1.661,4.345,3.355  c0.981,1.733,1.209,3.587,0.677,5.51c-0.532,1.921-1.675,3.378-3.397,4.33c-0.002,0.001-0.005,0.002-0.007,0.004  c-1.703,0.988-3.54,1.221-5.461,0.688c-1.923-0.532-3.396-1.68-4.377-3.412c-0.96-1.694-1.177-3.528-0.646-5.452  c0.533-1.924,1.667-3.401,3.365-4.388C69.957,41.858,71.118,41.55,72.317,41.55z"/><path fill="#491493" d="M34.017,50.53c-1.89-1.035-3.922-1.249-6.037-0.63c-2.114,0.618-3.726,1.894-4.795,3.797  c-1.025,1.92-1.232,3.965-0.615,6.078c0.618,2.115,1.89,3.712,3.78,4.748c1.219,0.668,2.487,1.003,3.789,1.003  c0.758,0,1.527-0.113,2.305-0.341c2.116-0.618,3.709-1.905,4.735-3.825c1.066-1.898,1.292-3.934,0.675-6.05  C37.237,53.196,35.946,51.588,34.017,50.53z M36.518,60.993c-0.001,0.003-0.002,0.005-0.004,0.007  c-0.927,1.735-2.367,2.899-4.281,3.459c-1.915,0.561-3.772,0.357-5.519-0.6c-1.708-0.936-2.857-2.381-3.417-4.297  s-0.373-3.77,0.553-5.501c0.964-1.719,2.426-2.874,4.343-3.435c0.715-0.209,1.419-0.313,2.11-0.313c1.16,0,2.281,0.294,3.351,0.88  c1.747,0.957,2.916,2.413,3.475,4.329C37.687,57.438,37.481,59.277,36.518,60.993z"/></svg>