<svg xmlns="http://www.w3.org/2000/svg" data-name="Layer 1" viewBox="0 0 100 125" x="0px" y="0px"><title>hand_icons</title><path d="M92,57.23c-1.43-2.14-3.82-2.22-5.86-1.67A6.14,6.14,0,0,0,85.35,53c-1.65-3-5.62-2.09-7.74-1.08a5.16,5.16,0,0,0-.67-2.06,3.85,3.85,0,0,0-2.4-1.92,6.43,6.43,0,0,0-4.45.75L51.74,57.46a1.48,1.48,0,0,0-.35.25l-7.84.13c-1.85-1.36-9.09-6-20.2-5.23-5.7.4-15.35,6-15.76,6.2a1.51,1.51,0,0,0-.74,1.3V79.25a1.5,1.5,0,0,0,1.5,1.5H57.64a24.72,24.72,0,0,0,13-3.69L91.07,64.44a4.88,4.88,0,0,0,2-2.93A5.55,5.55,0,0,0,92,57.23Zm-9.29-2.82c.84,1.51.24,2.34.2,2.39a1.69,1.69,0,0,0-.17.29l-11,5.81a27,27,0,0,1-8,2.72,5.56,5.56,0,0,0,.63-2.4,5.48,5.48,0,0,0-.18-1.61l14.57-7C79.47,54.3,82.13,53.33,82.73,54.41Zm-11.3-3.09.1,0a3.7,3.7,0,0,1,2.22-.49.88.88,0,0,1,.57.49,1.61,1.61,0,0,1-.29,2.2,1.54,1.54,0,0,0-.26.25L62.63,59.08A7.1,7.1,0,0,0,59,57.6h-.65Zm18,10.58L69.06,74.51a21.76,21.76,0,0,1-11.42,3.24H9.85V61c2.32-1.29,9.53-5.1,13.71-5.39C35,54.81,42,60.44,42.09,60.5a1.49,1.49,0,0,0,1,.34l15.71-.25c.52.08,2.74.51,2.67,2.53C61.38,65.51,58.24,66,57.78,66H44.07a1.5,1.5,0,0,0,0,3H59.26a29.77,29.77,0,0,0,13.92-3.46l11.91-6.3s3.4-1.9,4.44-.35C90.75,60.73,89.87,61.62,89.48,61.9Z" fill="#491693" /><path d="M48.5,49a1.48,1.48,0,0,0,.62.14,1.56,1.56,0,0,0,.63-.14c.41-.19,10.16-4.8,14.14-14.63,2.06-5.1.55-11.18-3.45-13.83a7.12,7.12,0,0,0-6.11-.94,9,9,0,0,0-5.3,4.8,9,9,0,0,0-5.37-4.71,7.17,7.17,0,0,0-6.1,1.05c-4,2.71-5.36,8.81-3.21,13.88C38.49,44.33,48.09,48.78,48.5,49ZM39.26,23.17a4.25,4.25,0,0,1,2.43-.8,4.09,4.09,0,0,1,1.14.17,6.14,6.14,0,0,1,3.75,3.65c.27.61,1.09,2.72,1.09,2.72a1.5,1.5,0,0,0,1.4,1h0a1.5,1.5,0,0,0,1.39-1s.79-2.13,1.05-2.75a6.2,6.2,0,0,1,3.68-3.71,4.15,4.15,0,0,1,3.58.57c2.81,1.86,3.85,6.44,2.33,10.2-3,7.36-9.88,11.57-12,12.71-2.1-1.12-8.9-5.2-12-12.51C35.52,29.67,36.49,25.07,39.26,23.17Z" fill="#491693" /></svg>