<svg xmlns="http://www.w3.org/2000/svg" width="30.533" height="29.434" viewBox="0 0 30.533 29.434">
  <g id="noun_Log_Out_197146" data-name="noun_Log Out_197146" transform="translate(-8.7 -8.6)">
    <g id="Group_4527" data-name="Group 4527" transform="translate(8.7 8.6)">
      <path id="Path_1276" data-name="Path 1276" d="M51.506,34.062a1.189,1.189,0,0,0-.081-.366c-.041-.041-.081-.122-.122-.163s-.041-.081-.081-.122h0L46.051,28.2a.909.909,0,0,0-1.3,0,1.061,1.061,0,0,0,0,1.425l3.623,3.745H30.336a.936.936,0,1,0,0,1.873H48.371l-3.623,3.542a.862.862,0,0,0,0,1.262.91.91,0,0,0,1.3-.041l5.211-5.211h0a9714.727,9714.727,0,0,0,.163-.326.805.805,0,0,0,.081-.407Z" transform="translate(-20.973 -20.058)" fill="#fff"/>
      <path id="Path_1277" data-name="Path 1277" d="M27.1,29.037V36.2H10.532V10.432H27.1v6.717h1.832V10.432A1.775,1.775,0,0,0,27.223,8.6H10.41A1.775,1.775,0,0,0,8.7,10.432V36.2a1.775,1.775,0,0,0,1.71,1.832H27.223a1.775,1.775,0,0,0,1.71-1.832V29.037Z" transform="translate(-8.7 -8.6)" fill="#fff"/>
    </g>
  </g>
</svg>
