<svg xmlns="http://www.w3.org/2000/svg" width="106.032" height="57.14" viewBox="0 0 106.032 57.14">
  <g id="noun-minibus-613977" transform="translate(-75.437 -143.921)">
    <path id="Path_1263" data-name="Path 1263" d="M117.437,185.037a4.852,4.852,0,0,0-4.831,4.831,4.831,4.831,0,1,0,4.831-4.831Zm0,7.187a2.489,2.489,0,0,1-2.474-2.475,2.416,2.416,0,0,1,2.474-2.475,2.489,2.489,0,0,1,2.475,2.475A2.416,2.416,0,0,1,117.437,192.224Zm63.855-7.187a4.852,4.852,0,0,0-4.831,4.831,4.831,4.831,0,0,0,9.661,0A4.854,4.854,0,0,0,181.292,185.037Zm0,7.187a2.489,2.489,0,0,1-2.475-2.475,2.416,2.416,0,0,1,2.475-2.475,2.475,2.475,0,0,1,0,4.949Zm20.5-27.333-8.483-4.005a6.311,6.311,0,0,1-2.12-1.767l-9.9-13.313a5.115,5.115,0,0,0-3.771-1.885H99.176A1.113,1.113,0,0,0,98,145.1V189.75a1.113,1.113,0,0,0,1.178,1.179h7.069a11.248,11.248,0,0,0,22.384,0h41.353a11.248,11.248,0,0,0,22.384,0h10.485a1.113,1.113,0,0,0,1.178-1.178V168.543a4.269,4.269,0,0,0-2.239-3.652Zm-.117,11.546a3.063,3.063,0,0,1,0-5.655Zm-11.9-15.2-3.3,4.241a2.911,2.911,0,0,1-1.885.943H182l2.71-2.71a1.166,1.166,0,1,0-1.649-1.649l-4.359,4.359H160.2V150.871H182l7.187,9.661a3.125,3.125,0,0,0,.588.706Zm-89.421-10.367h31.1v15.552h-31.1Zm33.459,0h24.034v15.552H133.813Zm17.554-4.477h26.155a2.907,2.907,0,0,1,1.885.943l.943,1.3h-80v-2.239Zm-51.013,26.155v-3.77h57.493v10.839a1.178,1.178,0,0,0,2.357,0V168.779h24.387a5.329,5.329,0,0,0,3.771-1.885l3.181-4.241.707.353,8.483,4.005a1.6,1.6,0,0,1,.825,1.3,5.55,5.55,0,0,0-4.241,5.3,5.423,5.423,0,0,0,4.241,5.3l0,4.242h-7.3a1.178,1.178,0,0,0,0,2.357h7.422v3.063h-9.189a11.343,11.343,0,0,0-11.192-10.132,11.488,11.488,0,0,0-9.19,4.712H132.634a1.178,1.178,0,1,0,0,2.357h38.172a13.067,13.067,0,0,0-.825,3.063H128.746a11.343,11.343,0,0,0-11.192-10.132,11.488,11.488,0,0,0-9.189,4.712h-4.124a1.178,1.178,0,1,0,0,2.357h2.828a13.068,13.068,0,0,0-.825,3.063h-5.891ZM117.437,198.7a8.954,8.954,0,1,1,8.954-8.954A8.949,8.949,0,0,1,117.437,198.7Zm63.855,0a8.954,8.954,0,1,1,8.954-8.954A8.95,8.95,0,0,1,181.292,198.7Zm-9.779-41.824-4.595,4.595a1.14,1.14,0,0,1-1.65,0,1.139,1.139,0,0,1,0-1.649l4.595-4.595a1.167,1.167,0,0,1,1.65,1.649Zm8.718-2.71a1.139,1.139,0,0,1,0,1.649l-7.893,7.893a1.14,1.14,0,0,1-1.65,0,1.139,1.139,0,0,1,0-1.649l7.893-7.893A1.137,1.137,0,0,1,180.231,154.17Zm-35.108,2.71-4.595,4.595a1.14,1.14,0,0,1-1.65,0,1.139,1.139,0,0,1,0-1.649l4.595-4.595a1.167,1.167,0,0,1,1.65,1.649Zm8.718-1.06-7.894,7.894a1.14,1.14,0,0,1-1.65,0,1.139,1.139,0,0,1,0-1.649l7.894-7.894a1.167,1.167,0,0,1,1.65,1.649Zm-42.059,1.06-4.595,4.595a1.14,1.14,0,0,1-1.65,0,1.139,1.139,0,0,1,0-1.649l4.595-4.595a1.167,1.167,0,0,1,1.65,1.649Zm15.2,1.06-4.595,4.595a1.14,1.14,0,0,1-1.65,0,1.139,1.139,0,0,1,0-1.649l4.595-4.595a1.167,1.167,0,0,1,1.65,1.649Zm-6.009-2.12-7.894,7.893a1.14,1.14,0,0,1-1.65,0,1.139,1.139,0,0,1,0-1.649l7.893-7.894a1.167,1.167,0,0,1,1.65,1.649Zm40.764,17.554a1.113,1.113,0,0,1,1.178-1.178h4.948a1.178,1.178,0,1,1,0,2.357h-4.948A1.269,1.269,0,0,1,161.734,173.374Zm-12.724,0a1.113,1.113,0,0,1,1.178-1.178h4.948a1.178,1.178,0,1,1,0,2.357h-4.948A1.182,1.182,0,0,1,149.01,173.374Z" transform="translate(-22.561 0)" fill="#fff"/>
  </g>
</svg>
