<svg xmlns="http://www.w3.org/2000/svg" width="63.788" height="68.215" viewBox="0 0 63.788 68.215">
  <g id="Group_4620" data-name="Group 4620" transform="translate(-88.25 -403.048)">
    <g id="noun_notification_2324656" transform="translate(88.25 403.048)">
      <g id="Group_4491" data-name="Group 4491">
        <path id="Path_1211" data-name="Path 1211" d="M18.708,48.755a5.729,5.729,0,1,0-5.724,5.724A5.737,5.737,0,0,0,18.708,48.755Zm-5.724,1.568a1.562,1.562,0,1,1,1.557-1.557A1.565,1.565,0,0,1,12.985,50.323Z" transform="translate(-7.25 -18.986)" fill="#ff2366"/>
        <ellipse id="Ellipse_108" data-name="Ellipse 108" cx="2.61" cy="2.61" rx="2.61" ry="2.61" transform="translate(11.787 12.529)" fill="#ff2366"/>
        <path id="Path_1212" data-name="Path 1212" d="M66.052,58.332A12.653,12.653,0,0,1,63.577,50.8V39.569c0-11.388-8.468-21.01-19.037-21.831V14.2a1.513,1.513,0,1,0-3.024,0v3.534a19.969,19.969,0,0,0-12.758,5.947,21.679,21.679,0,0,0-6.279,15.411V50.8A12.653,12.653,0,0,1,20,58.332a30.443,30.443,0,0,0-3.7,6.511,5.959,5.959,0,0,0,.462,5.474,5.594,5.594,0,0,0,4.727,2.671h12.63a8.977,8.977,0,0,0,17.812,0h12.63a5.575,5.575,0,0,0,4.727-2.671,5.985,5.985,0,0,0,.462-5.474A30.445,30.445,0,0,0,66.052,58.332ZM43.028,77.683a6.078,6.078,0,0,1-5.818-4.695H48.837A6.062,6.062,0,0,1,43.028,77.683Zm23.741-9.091a2.606,2.606,0,0,1-2.2,1.244H21.491a2.606,2.606,0,0,1-2.2-1.244,2.7,2.7,0,0,1-.215-2.5,27.505,27.505,0,0,1,3.319-5.831A15.927,15.927,0,0,0,25.5,50.8V39.1a18.5,18.5,0,0,1,5.356-13.147A17,17,0,0,1,43.02,20.832c.215,0,.43,0,.645.008,9.312.348,16.88,8.743,16.88,18.729V50.8a16.074,16.074,0,0,0,1.536,6.818H48.5a1.577,1.577,0,0,0,0,3.152H64.015a26.766,26.766,0,0,1,1.775,2.853h-9.3a1.577,1.577,0,0,0,0,3.152H67.158A2.686,2.686,0,0,1,66.768,68.592Z" transform="translate(-6.421 -12.62)" fill="#ff2366"/>
        <path id="Path_1213" data-name="Path 1213" d="M15.181,6.843a2.094,2.094,0,0,0,2.895-.57,2.086,2.086,0,0,0-.57-2.895A19.686,19.686,0,0,0,7.221.012,20.611,20.611,0,0,0,1.585.593a2.084,2.084,0,1,0,1,4.046,16.327,16.327,0,0,1,4.5-.461A15.6,15.6,0,0,1,15.181,6.843Z" transform="matrix(0.998, -0.07, 0.07, 0.998, 27.567, 14.651)" fill="#ff2366"/>
        <path id="Path_1215" data-name="Path 1215" d="M36.749,34.9a2.077,2.077,0,0,0-2.829.822,20.347,20.347,0,0,0-2.5,9.759V55.758a2.083,2.083,0,1,0,4.167,0V45.484a16.249,16.249,0,0,1,1.985-7.763A2.076,2.076,0,0,0,36.749,34.9Z" transform="translate(-8.684 -15.304)" fill="#ff2366"/>
        <path id="Path_1216" data-name="Path 1216" d="M61.257,74.11H51.893a2.083,2.083,0,1,0,0,4.167h9.364a2.083,2.083,0,1,0,0-4.167Z" transform="translate(-16.68 -23.902)" fill="#ff2366"/>
      </g>
    </g>
  </g>
</svg>
