<svg xmlns="http://www.w3.org/2000/svg" data-name="Layer 1" viewBox="0 0 95 118.75" x="0px" y="0px"><path fill="#491493" d="M47.5,21.816a12.155,12.155,0,1,1-8.594,3.56,12.117,12.117,0,0,1,8.594-3.56ZM22.844,70.6H4.238a1.724,1.724,0,0,1-1.224-.51l0,0,0,0a1.73,1.73,0,0,1-.51-1.228v-4.7A14.558,14.558,0,0,1,17.018,49.645h7.363a14.459,14.459,0,0,1,8.364,2.671,24.7,24.7,0,0,1,29.51,0,14.459,14.459,0,0,1,8.364-2.671h7.363A14.558,14.558,0,0,1,92.5,64.163v4.7a1.733,1.733,0,0,1-.509,1.228.955.955,0,0,1-.09.08,1.728,1.728,0,0,1-1.139.43H72.156l0,.028a2.376,2.376,0,0,1-.651,1.8,2.417,2.417,0,0,1-.8.567,2.39,2.39,0,0,1-.957.194h-44.5a2.4,2.4,0,0,1-2.407-2.556l0-.028Zm8.2-16.894a12.273,12.273,0,0,0-6.663-1.952H17.018A12.447,12.447,0,0,0,4.61,64.163V68.49H23.064a24.646,24.646,0,0,1,7.512-14.355q.231-.217.468-.429ZM20.7,28.455a10.292,10.292,0,1,0,7.276,3.014A10.259,10.259,0,0,0,20.7,28.455Zm5.785,4.506a8.183,8.183,0,1,1-5.785-2.4,8.153,8.153,0,0,1,5.785,2.4ZM71.936,68.49H90.391V64.163A12.448,12.448,0,0,0,77.982,51.754H70.619a12.265,12.265,0,0,0-6.662,1.952q.236.212.467.429A24.646,24.646,0,0,1,71.936,68.49ZM74.3,28.455a10.292,10.292,0,1,0,7.277,3.014A10.259,10.259,0,0,0,74.3,28.455Zm5.786,4.506a8.183,8.183,0,1,1-5.786-2.4,8.157,8.157,0,0,1,5.786,2.4ZM32.018,55.667a22.535,22.535,0,0,0-7.075,15.084.26.26,0,0,0,.083.23.29.29,0,0,0,.1.072.311.311,0,0,0,.124.021h44.5a.32.32,0,0,0,.125-.021.3.3,0,0,0,.1-.072.26.26,0,0,0,.083-.23A22.6,22.6,0,0,0,32.018,55.667ZM54.6,26.868a10.046,10.046,0,1,0,2.942,7.1A10.014,10.014,0,0,0,54.6,26.868Z"/></svg>