<svg xmlns="http://www.w3.org/2000/svg" width="79.873" height="82.714" viewBox="0 0 79.873 82.714">
  <g id="noun_Woman_2762717" transform="translate(-9.252 -8.228)">
    <g id="Group_4592" data-name="Group 4592" transform="translate(9.252 8.228)">
      <path id="Path_1372" data-name="Path 1372" d="M89.953,51.006a.732.732,0,0,0-.216-.519L79.575,40.324a9.579,9.579,0,0,0-1.661-3.14c-.008-.01-.021-.014-.028-.022a.658.658,0,0,0-.046-.07,7.418,7.418,0,0,1-1.62-6.389A8.825,8.825,0,0,0,74.2,23a.761.761,0,0,0-.069-.046C69.338,14.358,60.074,8.544,50.753,8.232V9.7c8.919.314,17.794,5.964,22.275,14.283a.717.717,0,0,0,.346.306,7.525,7.525,0,0,1,1.4,6.135,8.832,8.832,0,0,0,2.013,7.694c.007.008.008.019.016.026a8.176,8.176,0,0,1,1.425,2.8.373.373,0,0,0,.014.047,8.611,8.611,0,0,1,.087,4.492,10.059,10.059,0,0,0,1.84,8.646h0c.006.009.007.019.013.025a10.074,10.074,0,0,1,1.361,8.355.736.736,0,0,0,.493.916.752.752,0,0,0,.212.03.736.736,0,0,0,.7-.523A10.84,10.84,0,0,0,83.264,58l6.475-6.475A.743.743,0,0,0,89.953,51.006Zm-7.094,5.321a11.018,11.018,0,0,0-1.506-3.06.321.321,0,0,0-.034-.029.532.532,0,0,0-.041-.073,8.662,8.662,0,0,1-1.521-7.333,10.158,10.158,0,0,0,.278-2.968l8.144,8.143Z" transform="translate(-10.081 -8.228)" fill="#491493"/>
      <path id="Path_1373" data-name="Path 1373" d="M56.521,55.85a.735.735,0,0,0-.695-.974H43.905a.735.735,0,0,0-.695.974c.272.793,1.745,4.743,3.96,4.743h5.39C54.777,60.594,56.249,56.642,56.521,55.85Zm-3.96,3.273h-5.39c-.668,0-1.572-1.408-2.184-2.777h9.757C54.133,57.715,53.23,59.123,52.561,59.123Z" transform="translate(-9.929 -9.159)" fill="#491493"/>
      <path id="Path_1374" data-name="Path 1374" d="M47.487,62.127a.735.735,0,0,0,0,1.47h4.9a.735.735,0,0,0,0-1.47Z" transform="translate(-10.001 -9.304)" fill="#491493"/>
      <path id="Path_1375" data-name="Path 1375" d="M79.66,62.565a10.356,10.356,0,0,0-1.406-9.687.409.409,0,0,0-.033-.027.734.734,0,0,0-.045-.075,7.817,7.817,0,0,1-1.4-7.248,9.224,9.224,0,0,0-1.716-8.68.289.289,0,0,0-.03-.022.631.631,0,0,0-.046-.068,6.7,6.7,0,0,1-1.547-6.324,8.162,8.162,0,0,0-1.955-7.749.1.1,0,0,0-.011-.007A26.232,26.232,0,0,0,50.752,10.315v1.47a24.722,24.722,0,0,1,19.59,11.854.739.739,0,0,0,.262.255,6.727,6.727,0,0,1,1.408,6.176,8.159,8.159,0,0,0,1.943,7.738c.007.009.009.02.017.027a7.745,7.745,0,0,1,1.4,7.25,9.217,9.217,0,0,0,1.715,8.679h0c.006.009.007.02.014.026a8.868,8.868,0,0,1,1.184,8.251,10.353,10.353,0,0,0,1.406,9.686.735.735,0,1,0,1.15-.915A8.962,8.962,0,0,1,79.66,62.565Z" transform="translate(-10.081 -8.27)" fill="#491493"/>
      <path id="Path_1376" data-name="Path 1376" d="M77.056,70.314a.887.887,0,0,0-.048-.09,8.053,8.053,0,0,1-.99-8.135,9.43,9.43,0,0,0-1.188-9.7.281.281,0,0,0-.033-.026.639.639,0,0,0-.049-.077,7.06,7.06,0,0,1-1.27-7.156,8.466,8.466,0,0,0-1.572-8.713c-.009-.01-.022-.013-.031-.022a.683.683,0,0,0-.05-.069,6.1,6.1,0,0,1-1.47-6.252,7.562,7.562,0,0,0-1.874-7.8.434.434,0,0,0-.049-.029,23.293,23.293,0,0,0-17.68-9.854v1.471A22.118,22.118,0,0,1,67.377,23.3a.727.727,0,0,0,.286.244,6.074,6.074,0,0,1,1.295,6.072A7.556,7.556,0,0,0,70.82,37.4c.008.009.01.021.019.028a6.989,6.989,0,0,1,1.273,7.158,8.456,8.456,0,0,0,1.57,8.712c.007.01.009.021.017.03a8.052,8.052,0,0,1,.99,8.135,9.431,9.431,0,0,0,1.187,9.7.367.367,0,0,0,.019.04,9.486,9.486,0,0,1,1.258,7.7.736.736,0,0,0,.477.923.769.769,0,0,0,.223.034.736.736,0,0,0,.7-.512,10.814,10.814,0,0,0-1.468-9C77.078,70.33,77.065,70.325,77.056,70.314Z" transform="translate(-10.081 -8.311)" fill="#491493"/>
      <path id="Path_1377" data-name="Path 1377" d="M72.827,69.6a.958.958,0,0,0-.052-.092c-.032-.037-3.219-3.8-.782-8.013,2.955-5.114-.906-9.666-.945-9.711a.355.355,0,0,0-.032-.025.717.717,0,0,0-.051-.078,6.312,6.312,0,0,1-1.133-7.058c2.386-4.845-1.372-8.706-1.41-8.744-.009-.009-.021-.012-.03-.021s-.03-.051-.054-.071a5.551,5.551,0,0,1-1.389-6.172,7.011,7.011,0,0,0-1.571-7.648,20.578,20.578,0,0,0-14.625-7.493v1.47a19.062,19.062,0,0,1,13.273,6.7.738.738,0,0,0,.178.232,5.607,5.607,0,0,1,1.388,6.172,7.016,7.016,0,0,0,1.767,7.83.277.277,0,0,0,.021.03,6.316,6.316,0,0,1,1.135,7.059c-2.378,4.826,1.337,8.67,1.405,8.739a.366.366,0,0,0,.019.033c.132.153,3.208,3.819.784,8.015-2.956,5.113.9,9.665.944,9.71h0c.008.013.01.026.019.039.137.184,3.332,4.558.323,9.042a8.629,8.629,0,0,0-1.427,6.258.736.736,0,0,0,.726.627.838.838,0,0,0,.11-.008.736.736,0,0,0,.618-.836,7.2,7.2,0,0,1,1.194-5.223c3.6-5.364-.328-10.691-.368-10.744C72.849,69.616,72.836,69.611,72.827,69.6Z" transform="translate(-10.081 -8.353)" fill="#491493"/>
      <path id="Path_1378" data-name="Path 1378" d="M69.118,71.386a.743.743,0,0,0-.07-.183,10.306,10.306,0,0,0-1.28-2.429c-.009-.012-.023-.017-.032-.026a.89.89,0,0,0-.055-.093c-.034-.037-3.4-3.835-.559-7.882a7.277,7.277,0,0,0,.819-7.179.734.734,0,0,0-.065-.172,9.245,9.245,0,0,0-1.427-2.364.338.338,0,0,0-.032-.024.577.577,0,0,0-.057-.081c-.134-.128-3.251-3.188-.984-6.951a7.122,7.122,0,0,0-1.226-8.77.234.234,0,0,0-.033-.021.619.619,0,0,0-.056-.07c-.125-.106-3.064-2.645-1.3-6.091a6.348,6.348,0,0,0-.968-7.183.726.726,0,0,0-.174-.27,17.446,17.446,0,0,0-11.288-5.025v1.47A15.857,15.857,0,0,1,60.07,22.2a.705.705,0,0,0,.077.1,5.035,5.035,0,0,1,1.3,6.09,6.5,6.5,0,0,0-.6,1.755H54.958a.735.735,0,1,0,0,1.47h5.788a6.947,6.947,0,0,0,2.363,4.652c.009.01.012.022.022.031.133.129,3.239,3.212.986,6.953a7.121,7.121,0,0,0,1.222,8.765.4.4,0,0,0,.021.034,7.456,7.456,0,0,1,1.048,1.643c-4.2,7.292-13.617,13.277-16.762,13.277-2.885,0-12.593-5.592-16.864-13.28a7.522,7.522,0,0,1,1.046-1.639c.009-.011.012-.023.021-.034a7.121,7.121,0,0,0,1.222-8.765c-2.253-3.741.853-6.824.985-6.952.01-.01.013-.022.022-.031a6.925,6.925,0,0,0,2.368-4.771h5.735a.735.735,0,1,0,0-1.47H38.316a6.51,6.51,0,0,0-.579-1.638c-1.76-3.448,1.178-5.984,1.3-6.09a.649.649,0,0,0,.076-.1,15.858,15.858,0,0,1,9.744-4.154V16.572a17.452,17.452,0,0,0-11.284,5.021.724.724,0,0,0-.175.27,6.349,6.349,0,0,0-.972,7.188c1.758,3.442-1.17,5.978-1.3,6.09a.669.669,0,0,0-.058.073.321.321,0,0,0-.03.02A7.122,7.122,0,0,0,33.81,44c2.249,3.735-.842,6.813-.984,6.952a.545.545,0,0,0-.055.079c-.011.011-.024.015-.033.024a9.246,9.246,0,0,0-1.427,2.364.75.75,0,0,0-.058.154,7.282,7.282,0,0,0,.812,7.2c2.825,4.026-.42,7.729-.56,7.884a.637.637,0,0,0-.053.09c-.01.011-.024.017-.032.027a10.256,10.256,0,0,0-1.28,2.429.692.692,0,0,0-.07.183,8.059,8.059,0,0,0,1.357,8.107c3.487,4.3.136,8.7-.008,8.884a.735.735,0,0,0,1.156.908c.042-.055,4.227-5.5-.007-10.719a6.535,6.535,0,0,1-1.434-5.615l17.941,17.94a.733.733,0,0,0,1.039,0l17.94-17.94a6.535,6.535,0,0,1-1.434,5.615c-4.234,5.218-.05,10.664-.007,10.719a.735.735,0,0,0,1.156-.908c-.144-.185-3.495-4.589-.008-8.884A8.068,8.068,0,0,0,69.118,71.386ZM66.994,55.558A5.815,5.815,0,0,1,65.92,59.93a7.635,7.635,0,0,0,.008,8.8h-4.41l0-6.594a.708.708,0,0,0-.055-.27A32.848,32.848,0,0,0,66.994,55.558ZM60.049,63.08l0,6.135a.758.758,0,0,0,.024.124.726.726,0,0,0-.024.123c0,3.908-7.3,7.72-10.454,9.008-3.151-1.287-10.445-5.091-10.453-9,0,0,0,0,0-.006a.672.672,0,0,0-.025-.126.662.662,0,0,0,.025-.122l0-6.087c4.107,3.287,8.4,5.3,10.5,5.3C51.9,68.432,56.072,66.322,60.049,63.08Zm-27.86-7.5a30.64,30.64,0,0,0,5.526,6.346.726.726,0,0,0-.043.213l0,6.594H33.26a7.637,7.637,0,0,0,.008-8.8A5.82,5.82,0,0,1,32.189,55.578Zm17.4,33.755L31.624,71.366a9.007,9.007,0,0,1,.6-1.166h5.51c.871,5.48,11.134,9.57,11.59,9.748a.733.733,0,0,0,.537,0c.456-.179,10.719-4.268,11.59-9.748h5.51a8.883,8.883,0,0,1,.6,1.166Z" transform="translate(-9.657 -8.395)" fill="#491493"/>
      <path id="Path_1379" data-name="Path 1379" d="M19.023,54.155c.006-.008.007-.018.013-.025h0a10.057,10.057,0,0,0,1.84-8.646,8.607,8.607,0,0,1,.088-4.494c0-.007,0-.014.006-.02a8.183,8.183,0,0,1,1.43-2.821c.008-.009.009-.021.017-.028a8.828,8.828,0,0,0,2.013-7.694,7.359,7.359,0,0,1,1.62-6.389.724.724,0,0,0,.171-.288C30.756,15.54,39.61,9.975,48.453,9.7V8.228c-9.392.277-18.794,6.182-23.567,14.891,0,.007,0,.014-.006.021A8.892,8.892,0,0,0,22.987,30.7a7.365,7.365,0,0,1-1.621,6.39.589.589,0,0,0-.045.069c-.009.009-.021.013-.028.022a9.558,9.558,0,0,0-1.661,3.14L9.468,50.486a.735.735,0,0,0,0,1.04L15.943,58a10.85,10.85,0,0,0,.311,4.932.736.736,0,0,0,.7.523.757.757,0,0,0,.212-.03.736.736,0,0,0,.493-.916A10.07,10.07,0,0,1,19.023,54.155Zm-8-3.15,8.144-8.143a10.223,10.223,0,0,0,.278,2.968,8.57,8.57,0,0,1-1.523,7.335.624.624,0,0,0-.04.071c-.01.012-.025.018-.034.029a11.049,11.049,0,0,0-1.506,3.06Z" transform="translate(-9.252 -8.228)" fill="#491493"/>
      <path id="Path_1380" data-name="Path 1380" d="M21.1,62.042a8.865,8.865,0,0,1,1.184-8.251c.006-.008.007-.019.014-.026h0a9.219,9.219,0,0,0,1.715-8.679,7.742,7.742,0,0,1,1.4-7.248c.008-.009.01-.021.018-.029a8.162,8.162,0,0,0,1.943-7.738,6.694,6.694,0,0,1,1.546-6.323.7.7,0,0,0,.186-.329A24.758,24.758,0,0,1,48.636,11.782v-1.47A26.271,26.271,0,0,0,27.787,22.757a.586.586,0,0,0-.029.082,8.186,8.186,0,0,0-1.8,7.593,6.7,6.7,0,0,1-1.546,6.323.676.676,0,0,0-.048.07c-.009.009-.021.012-.029.021a9.223,9.223,0,0,0-1.716,8.68,7.736,7.736,0,0,1-1.4,7.248.633.633,0,0,0-.044.074c-.01.012-.024.018-.033.028a10.36,10.36,0,0,0-1.406,9.687,8.861,8.861,0,0,1-1.184,8.25.735.735,0,0,0,1.152.913A10.354,10.354,0,0,0,21.1,62.042Z" transform="translate(-9.435 -8.27)" fill="#491493"/>
      <path id="Path_1381" data-name="Path 1381" d="M23.552,71.161a9.429,9.429,0,0,0,1.187-9.7,7.954,7.954,0,0,1,.992-8.136c.008-.01.009-.021.017-.03a8.457,8.457,0,0,0,1.568-8.711,6.992,6.992,0,0,1,1.272-7.157c.008-.009.011-.021.018-.028a7.556,7.556,0,0,0,1.864-7.785,6.1,6.1,0,0,1,1.468-6.251.672.672,0,0,0,.1-.136s.009-.006.012-.011a22.157,22.157,0,0,1,16.628-9.352V12.391a23.341,23.341,0,0,0-17.84,9.991s0,0,0,0a7.54,7.54,0,0,0-1.762,7.686,6.1,6.1,0,0,1-1.47,6.252c-.022.021-.031.048-.051.07s-.021.012-.03.021a8.462,8.462,0,0,0-1.572,8.713,6.989,6.989,0,0,1-1.271,7.157.707.707,0,0,0-.048.076c-.01.011-.023.016-.032.026a9.431,9.431,0,0,0-1.188,9.7,7.955,7.955,0,0,1-.992,8.136.647.647,0,0,0-.047.089c-.009.011-.021.017-.028.026a10.814,10.814,0,0,0-1.468,9,.736.736,0,0,0,.7.512.774.774,0,0,0,.223-.034.735.735,0,0,0,.477-.923,9.48,9.48,0,0,1,1.258-7.7C23.544,71.189,23.545,71.173,23.552,71.161Z" transform="translate(-9.475 -8.311)" fill="#491493"/>
      <path id="Path_1382" data-name="Path 1382" d="M27.833,70.51c.009-.013.011-.026.019-.039h0c.039-.045,3.9-4.6.944-9.71-2.424-4.195.653-7.861.784-8.015a.363.363,0,0,0,.019-.033c.068-.069,3.782-3.913,1.405-8.739a6.313,6.313,0,0,1,1.134-7.057c.01-.01.013-.023.022-.032a7.015,7.015,0,0,0,1.767-7.83,5.553,5.553,0,0,1,1.388-6.172.716.716,0,0,0,.193-.292,19.1,19.1,0,0,1,13.257-6.645v-1.47A20.615,20.615,0,0,0,34.076,22a.56.56,0,0,0-.038.072,7,7,0,0,0-1.471,7.547,5.554,5.554,0,0,1-1.389,6.172.768.768,0,0,0-.055.072c-.009.008-.021.011-.029.02-.038.038-3.8,3.9-1.41,8.744a6.312,6.312,0,0,1-1.133,7.058.836.836,0,0,0-.052.078c-.01.011-.023.015-.032.025-.039.045-3.9,4.6-.945,9.711,2.425,4.194-.652,7.861-.783,8.014a.7.7,0,0,0-.051.091c-.009.011-.022.016-.029.026-.04.053-3.969,5.38-.368,10.744A7.213,7.213,0,0,1,27.484,85.6a.737.737,0,0,0,.618.836.826.826,0,0,0,.109.008.736.736,0,0,0,.726-.627,8.637,8.637,0,0,0-1.428-6.259C24.5,75.07,27.694,70.695,27.833,70.51Z" transform="translate(-9.562 -8.353)" fill="#491493"/>
      <path id="Path_1383" data-name="Path 1383" d="M53.315,46.943c-.526.983-1.515,2.385-2.376,2.385H48.654a.735.735,0,1,0,0,1.47h2.285c2.218,0,3.769-3.323,3.939-3.7a.735.735,0,0,0-.151-.82L51.46,43.01a.735.735,0,1,0-1.04,1.04Z" transform="translate(-10.024 -8.918)" fill="#491493"/>
      <path id="Path_1384" data-name="Path 1384" d="M44.587,40.18a.735.735,0,1,0,1.47,0,4.181,4.181,0,0,0-8.33,0,.735.735,0,0,0,1.47,0,2.72,2.72,0,0,1,5.39,0Z" transform="translate(-9.821 -8.79)" fill="#491493"/>
      <path id="Path_1385" data-name="Path 1385" d="M60.637,40.18a.735.735,0,0,0,1.47,0,4.181,4.181,0,0,0-8.33,0,.735.735,0,0,0,1.47,0,2.72,2.72,0,0,1,5.39,0Z" transform="translate(-10.141 -8.79)" fill="#491493"/>
    </g>
  </g>
</svg>
